<?xml version="1.0" encoding="utf-8"?>
<!-- Generator: Adobe Illustrator 28.1.0, SVG Export Plug-In . SVG Version: 6.00 Build 0)  -->
<svg version="1.1" id="Capa_1" xmlns="http://www.w3.org/2000/svg" xmlns:xlink="http://www.w3.org/1999/xlink" x="0px" y="0px"
	 viewBox="0 0 800 800" style="enable-background:new 0 0 800 800;" xml:space="preserve">
<style type="text/css">
	.st0{fill:#4D4BE7;}
	.st1{fill-rule:evenodd;clip-rule:evenodd;fill:#4D4BDD;}
</style>
<g>
	<path class="st0" d="M127.7,184.8h474.6c14.6,0,26.5-11.9,26.5-26.5c0-14.6-11.9-26.5-26.5-26.5H127.7c-14.6,0-26.5,11.9-26.5,26.5
		C101.2,173,113.1,184.8,127.7,184.8z"/>
	<path class="st0" d="M127.7,297.7h474.6c14.6,0,26.5-11.9,26.5-26.5c0-14.6-11.9-26.5-26.5-26.5H127.7c-14.6,0-26.5,11.9-26.5,26.5
		C101.2,285.9,113.1,297.7,127.7,297.7z"/>
	<path class="st0" d="M379.5,357.7H127.7c-14.6,0-26.5,11.9-26.5,26.5c0,14.6,11.9,26.5,26.5,26.5h251.8c14.6,0,26.5-11.9,26.5-26.5
		C406,369.6,394.1,357.7,379.5,357.7z"/>
	<path class="st0" d="M798.5,760.1l-69.2-137l26.8-10.7c7-2.8,12.9-10.9,13.4-18.5l2.3-34.4c0.4-5.8,3.3-14.7,6.4-19.6l18.3-29.1
		c4-6.4,4-16.4,0-22.8l-18.3-29.1c-3.1-4.9-6-13.9-6.4-19.6l-2.3-34.4c-0.4-6.5-4.8-13.3-10.5-16.9V69.5c0-29.2-23.7-52.9-52.9-52.9
		H52.9C23.7,16.5,0,40.3,0,69.5v453.4c0,29.2,23.7,52.9,52.9,52.9h416.3l1.2,18.1c0.5,7.6,6.4,15.7,13.4,18.5l25.1,10l-69.5,137.7
		c-2.1,4.2-1.6,6.8-0.7,8.2c0.5,0.9,1.9,2.4,4.7,2.4c1.4,0,3-0.4,4.8-1.1l57-23.8c1.4-0.6,3.1-0.9,4.8-0.9c4.2,0,8.4,1.7,10.9,4.4
		l27.4,30.3c2.3,2.5,5.1,3.9,7.9,3.9c3.8,0,7.1-2.4,9-6.5l53.6-115.6c0.1,0,0.2,0,0.3,0L672.8,777c1.9,4.1,5.2,6.5,9,6.5
		c2.8,0,5.7-1.4,7.9-3.9l27.4-30.3c2.4-2.7,6.7-4.4,10.9-4.4c1.7,0,3.4,0.3,4.8,0.9l57,23.8c1.8,0.7,3.4,1.1,4.8,1.1
		c2.8,0,4.1-1.5,4.7-2.4C800.1,766.9,800.7,764.4,798.5,760.1z M52.9,69.5h653.2l0,290.5l-20.7-24.9c-3.8-4.5-10.7-7.6-17.2-7.6
		c-1.6,0-3.1,0.2-4.5,0.5l-33.4,8.5c-5.3,1.4-15.3,1.4-20.6,0l-33.4-8.5c-1.4-0.4-2.9-0.5-4.5-0.5c-6.5,0-13.4,3.1-17.2,7.6
		l-22,26.5c-3.7,4.4-11.3,10-16.7,12.1l-32,12.8c-7,2.8-12.9,10.9-13.4,18.5l-2.3,34.4c-0.4,5.8-3.3,14.7-6.4,19.6L443.5,488
		c-4,6.4-4,16.4,0,22.8l7.6,12H52.9V69.5z M620,612c-62.2,0-112.5-50.4-112.5-112.5S557.9,386.9,620,386.9
		c62.2,0,112.5,50.4,112.5,112.5C732.5,561.6,682.2,612,620,612z"/>
</g>
<path id="形状" class="st1" d="M614.1,417c3.8-1.4,8-1.4,11.8,0l58.8,22.1c6.6,2.5,10.9,8.7,10.9,15.7v45.1
	c0,28.6-16.2,54.8-41.8,67.6l-28.2,14.1c-3.5,1.8-7.7,1.8-11.3,0l-28.2-14.1c-25.6-12.8-41.8-39-41.8-67.6v-45.1
	c0-7,4.3-13.3,10.9-15.7L614.1,417z M620,432.7l-58.8,22.1v45.1c0,22.3,12.6,42.6,32.5,52.6l26.3,13.2V432.7z"/>
</svg>
